HIERARCHY
ROOT Hips
{
 OFFSET 0.000000 0.000000 0.000000
 CHANNELS 6 Xposition Yposition Zposition Yrotation Xrotation Zrotation
 JOINT Chest
 {
  OFFSET 0.000000 9.581000 -0.001100
  CHANNELS 3 Yrotation Xrotation Zrotation
  JOINT Chest2
  {
   OFFSET 0.000000 9.561100 0.002200
   CHANNELS 3 Yrotation Xrotation Zrotation
   JOINT Chest3
   {
    OFFSET 0.000000 9.521100 0.000000
    CHANNELS 3 Yrotation Xrotation Zrotation
    JOINT Chest4
    {
     OFFSET 0.000000 9.511400 0.000000
     CHANNELS 3 Yrotation Xrotation Zrotation
     JOINT Neck
     {
      OFFSET 0.000000 14.375100 0.000000
      CHANNELS 3 Yrotation Xrotation Zrotation
      JOINT Head
      {
       OFFSET 0.000000 8.901200 0.004600
       CHANNELS 3 Yrotation Xrotation Zrotation
       End Site
       {
        OFFSET 0.000000 16.962200 0.002400
       }
      }
     }
     JOINT RightCollar
     {
      OFFSET -2.920100 9.518800 0.000000
      CHANNELS 3 Yrotation Xrotation Zrotation
      JOINT RightShoulder
      {
       OFFSET -13.664500 0.000000 0.000000
       CHANNELS 3 Yrotation Xrotation Zrotation
       JOINT RightElbow
       {
        OFFSET 0.000000 -29.999200 0.000000
        CHANNELS 3 Yrotation Xrotation Zrotation
        JOINT RightWrist
        {
         OFFSET 0.000000 -24.253600 0.000000
         CHANNELS 3 Yrotation Xrotation Zrotation
         End Site
         {
          OFFSET 0.000000 -17.918900 0.000000
         }
        }
       }
      }
     }
     JOINT LeftCollar
     {
      OFFSET 2.920100 9.518800 0.000000
      CHANNELS 3 Yrotation Xrotation Zrotation
      JOINT LeftShoulder
      {
       OFFSET 13.664500 0.000000 0.000000
       CHANNELS 3 Yrotation Xrotation Zrotation
       JOINT LeftElbow
       {
        OFFSET 0.000000 -29.999200 0.000000
        CHANNELS 3 Yrotation Xrotation Zrotation
        JOINT LeftWrist
        {
         OFFSET 0.000000 -24.253600 0.000000
         CHANNELS 3 Yrotation Xrotation Zrotation
         End Site
         {
          OFFSET 0.000000 -17.918900 0.000000
         }
        }
       }
      }
     }
    }
   }
  }
 }
 JOINT RightHip
 {
  OFFSET -7.797300 0.005300 0.000500
  CHANNELS 3 Yrotation Xrotation Zrotation
  JOINT RightKnee
  {
   OFFSET 0.000000 -40.663400 -0.000500
   CHANNELS 3 Yrotation Xrotation Zrotation
   JOINT RightAnkle
   {
    OFFSET 0.000000 -39.523700 -0.000900
    CHANNELS 3 Yrotation Xrotation Zrotation
    JOINT RightToe
    {
     OFFSET 0.000000 -6.418000 14.485300
     CHANNELS 3 Yrotation Xrotation Zrotation
     End Site
     {
      OFFSET 0.000000 -1.465200 6.326400
     }
    }
   }
  }
 }
 JOINT LeftHip
 {
  OFFSET 7.797300 0.005300 0.000500
  CHANNELS 3 Yrotation Xrotation Zrotation
  JOINT LeftKnee
  {
   OFFSET 0.000000 -40.663400 -0.000500
   CHANNELS 3 Yrotation Xrotation Zrotation
   JOINT LeftAnkle
   {
    OFFSET 0.000000 -39.523700 -0.000900
    CHANNELS 3 Yrotation Xrotation Zrotation
    JOINT LeftToe
    {
     OFFSET 0.000000 -6.418000 14.485300
     CHANNELS 3 Yrotation Xrotation Zrotation
     End Site
     {
      OFFSET 0.000000 -1.465200 6.326400
     }
    }
   }
  }
 }
}
MOTION
Frames: 15
Frame Time: 0.008333
0.000000 86.422400 0.000000 0.000000 -5.767877 0.000000 0.000000 11.653817 0.000000 0.000000 -5.885947 0.000000 0.000000 -0.000000 0.000000 0.000000 -0.000000 0.000000 0.000000 12.528835 0.000000 0.000000 0.711642 0.000000 0.000000 -0.000000 0.000000 0.000000 0.000000 -90.000000 0.000000 -2.309062 0.000000 0.000000 2.309062 0.000000 0.000000 -0.000000 0.000000 0.000000 -0.000000 90.000000 0.000000 -2.309062 0.000000 0.000000 2.309062 0.000000 0.000000 8.520406 0.000000 0.000000 1.905762 0.000000 -0.000000 -4.658285 0.000000 0.000000 -0.000000 0.000000 0.000000 8.520406 0.000000 0.000000 1.905762 0.000000 -0.000000 -4.658285 0.000000 0.000000 -0.000000 0.000000
-18.273206 126.891685 19.938740 -174.044548 -47.108181 -4.568895 -0.093337 27.106803 1.865980 -0.077025 4.678291 0.316974 -0.119285 7.437675 0.505114 -0.140001 22.086473 1.501692 3.152850 11.628547 0.322698 3.268247 -13.413803 -0.347509 0.348551 1.914548 1.896864 -0.314162 -8.864868 -8.350484 -73.616922 -44.505281 126.424438 3.360223 23.272839 22.343529 -10.366264 -1.346007 0.221382 -3.354431 -11.752067 9.879935 54.419677 -41.859198 -102.329536 0.717784 5.675760 -21.603756 -21.020668 -16.414646 0.337037 -5.873940 67.540579 8.588055 14.629709 -10.313701 -4.332588 -0.000291 -0.005609 -0.000129 14.958502 -7.211651 1.207755 -173.835951 84.844658 -178.732017 -11.883367 -14.411976 4.858876 0.000030 0.001120 0.000013
-18.272884 126.891881 19.939413 -174.045404 -47.114989 -4.572286 -0.088447 27.106491 1.869969 -0.074550 4.669527 0.315674 -0.116645 7.434074 0.504653 -0.138501 22.088721 1.503405 3.144350 11.622538 0.306362 3.262682 -13.503020 -0.465728 0.353825 1.883561 1.889192 -0.301845 -8.829616 -8.367704 -73.725766 -44.637135 126.503145 3.274927 23.115976 22.179785 -10.369087 -1.350275 0.226181 -3.351440 -11.736401 9.863738 54.406008 -41.884575 -102.301074 0.753189 5.506078 -21.474897 -21.017783 -16.409269 0.334439 -5.863281 67.540763 8.597127 14.667770 -10.303754 -4.335727 0.003651 -0.004974 0.001617 14.957348 -7.205896 1.214322 -173.827541 84.844488 -178.725648 -11.880165 -14.414553 4.856741 -0.000106 0.000676 -0.000047
-18.272526 126.892141 19.940163 -174.045493 -47.123277 -4.576886 -0.080952 27.101613 1.875250 -0.076547 4.666604 0.315058 -0.110790 7.412413 0.502265 -0.142296 22.120569 1.509035 3.137463 11.586404 0.264339 3.256493 -13.536458 -0.519979 0.359896 1.851581 1.880472 -0.293804 -8.806816 -8.380951 -73.836292 -44.744976 126.572798 3.238680 22.960577 22.011042 -10.369553 -1.352365 0.227690 -3.348536 -11.735523 9.851661 54.390940 -41.907632 -102.273656 0.794413 5.323595 -21.330562 -21.015059 -16.401623 0.334081 -5.859602 67.540597 8.601937 14.680514 -10.299408 -4.338714 0.003635 -0.004997 0.001610 14.956385 -7.198837 1.220499 -173.776777 84.843583 -178.674744 -11.870061 -14.418973 4.853547 0.000141 0.000279 0.000062
-18.272510 126.891896 19.941477 -174.045712 -47.128433 -4.579281 -0.077521 27.092217 1.875002 -0.077736 4.665151 0.317986 -0.110250 7.409655 0.502743 -0.136910 22.116666 1.508955 3.117308 11.538098 0.197788 3.248904 -13.527026 -0.525481 0.358623 1.835383 1.874404 -0.285962 -8.781957 -8.390577 -73.951549 -44.843236 126.639691 3.233544 22.791164 21.818095 -10.375614 -1.362037 0.230033 -3.345511 -11.718142 9.830622 54.358067 -41.954106 -102.216353 0.865140 5.121904 -21.184349 -21.013051 -16.397948 0.333204 -5.858257 67.542117 8.606172 14.679808 -10.300870 -4.341555 0.001815 -0.005400 0.000804 14.955348 -7.195186 1.224223 -173.776948 84.840256 -178.674327 -11.868632 -14.423477 4.852890 0.000084 0.000644 0.000037
-18.272905 126.891656 19.942845 -174.045728 -47.134438 -4.579390 -0.078599 27.084006 1.872858 -0.076492 4.667615 0.320412 -0.109584 7.401818 0.503054 -0.136027 22.097671 1.511712 3.111358 11.566820 0.186820 3.243052 -13.560724 -0.574036 0.357935 1.835079 1.864678 -0.264174 -8.779912 -8.412307 -74.072831 -44.942830 126.681717 3.226850 22.602030 21.597938 -10.380882 -1.356696 0.226751 -3.344458 -11.707746 9.811813 54.316959 -41.994050 -102.165135 0.950093 4.908428 -21.006255 -21.010653 -16.394532 0.331399 -5.852974 67.545052 8.611765 14.667766 -10.308372 -4.342694 -0.001167 -0.005950 -0.000517 14.953730 -7.189426 1.225505 -173.753945 84.838013 -178.651442 -11.864949 -14.427386 4.852057 0.000099 0.001057 0.000044
-18.273304 126.891411 19.944256 -174.044597 -47.140781 -4.580136 -0.077924 27.069251 1.875479 -0.078073 4.684726 0.318727 -0.108328 7.389987 0.503258 -0.137654 22.107501 1.511923 3.097832 11.531363 0.148384 3.244046 -13.535856 -0.554730 0.358492 1.821774 1.861134 -0.261410 -8.781723 -8.419284 -74.205028 -45.074001 126.749488 3.219798 22.397807 21.349966 -10.405123 -1.419651 0.232511 -3.329024 -11.663179 9.790503 54.266363 -42.024696 -102.099629 1.039442 4.682517 -20.810583 -21.008062 -16.389543 0.327668 -5.846805 67.544052 8.622754 14.668279 -10.309055 -4.358669 -0.000171 -0.005489 -0.000076 14.953072 -7.182571 1.226406 -173.733201 84.836689 -178.630804 -11.855096 -14.434761 4.849151 0.000277 0.000947 0.000123
-18.272995 126.892450 19.944542 -174.046138 -47.157479 -4.583560 -0.072405 27.078024 1.880937 -0.076938 4.674368 0.318894 -0.109893 7.402694 0.503286 -0.134421 22.086568 1.513613 3.080514 11.513672 0.110510 3.234402 -13.554125 -0.590756 0.354707 1.828986 1.859064 -0.258734 -8.785345 -8.422581 -74.341041 -45.212644 126.816463 3.217626 22.178554 21.072498 -10.423997 -1.430641 0.229553 -3.360790 -11.672914 9.781712 54.149317 -42.075141 -101.943288 1.164319 4.392499 -20.608511 -21.003155 -16.372056 0.324318 -5.844305 67.540427 8.628046 14.679707 -10.304567 -4.369536 0.002239 -0.005230 0.000992 14.954514 -7.167067 1.237006 -173.699401 84.835364 -178.594245 -11.860681 -14.434683 4.857708 -0.000181 0.000869 -0.000080
-18.272875 126.891920 19.946293 -174.047172 -47.161776 -4.584876 -0.077630 27.054454 1.879694 -0.076880 4.674102 0.319046 -0.108345 7.408076 0.504773 -0.135225 22.081817 1.514363 3.062749 11.497731 0.072406 3.204486 -13.613664 -0.679296 0.353485 1.794563 1.842863 -0.255149 -8.746620 -8.413044 -74.476402 -45.356678 126.878452 3.218686 21.946931 20.763956 -10.439021 -1.443105 0.221360 -3.376615 -11.662628 9.776120 54.075412 -42.096354 -101.849024 1.270807 4.134626 -20.382707 -21.001574 -16.367295 0.325268 -5.848330 67.536911 8.626558 14.678247 -10.305949 -4.380955 0.001678 -0.005054 0.000743 14.952471 -7.163693 1.239033 -173.710195 84.832972 -178.605872 -11.854372 -14.442399 4.857194 0.000167 0.000462 0.000074
-18.272494 126.891518 19.947965 -174.046155 -47.167063 -4.588788 -0.080642 27.040492 1.880335 -0.075331 4.684135 0.318487 -0.110362 7.395152 0.503317 -0.136141 22.077610 1.514339 3.017421 11.440157 0.000759 3.197273 -13.603103 -0.695186 0.350833 1.777978 1.833601 -0.249508 -8.714984 -8.403654 -74.623557 -45.506688 126.954241 3.215395 21.710005 20.417789 -10.455474 -1.458176 0.218841 -3.397214 -11.652971 9.769845 53.999997 -42.114952 -101.744646 1.380396 3.870145 -20.143200 -21.001245 -16.359100 0.329338 -5.854427 67.532444 8.620201 14.673029 -10.310968 -4.390221 0.001064 -0.003748 0.000472 14.948282 -7.160323 1.246272 -173.682487 84.828760 -178.580427 -11.854965 -14.447453 4.858592 0.000697 0.000079 0.000309
-18.272605 126.891447 19.949369 -174.041011 -47.175198 -4.592411 -0.085484 27.041196 1.879869 -0.075449 4.675338 0.317551 -0.117215 7.367780 0.505532 -0.141322 22.068345 1.514296 2.992423 11.453462 -0.039651 3.175513 -13.616257 -0.729464 0.351446 1.797495 1.820507 -0.242543 -8.692743 -8.397162 -74.766138 -45.658330 127.023086 3.200296 21.471625 20.038081 -10.467420 -1.451430 0.206019 -3.426119 -11.642151 9.761852 53.924949 -42.133328 -101.630016 1.487994 3.597029 -19.886547 -21.001873 -16.349493 0.327245 -5.852869 67.529854 8.620707 14.667049 -10.317478 -4.396739 -0.000074 -0.003113 -0.000033 14.944219 -7.151966 1.249029 -173.690386 84.827056 -178.587570 -11.859040 -14.451454 4.860243 0.000376 0.000538 0.000167
-18.272734 126.891502 19.950717 -174.044863 -47.184815 -4.588828 -0.085552 27.042287 1.878900 -0.078146 4.663919 0.318867 -0.118182 7.370317 0.503139 -0.146720 22.059770 1.515397 2.957219 11.441958 -0.079411 3.146983 -13.628161 -0.763391 0.355134 1.806906 1.811699 -0.242333 -8.723960 -8.384524 -74.854078 -45.806263 127.027186 3.175377 21.235902 19.641185 -10.481447 -1.473652 0.198399 -3.462308 -11.631068 9.755029 53.849030 -42.154985 -101.501695 1.594754 3.313300 -19.615897 -20.988034 -16.340097 0.324913 -5.869682 67.528618 8.609811 14.657570 -10.324957 -4.400573 0.000067 -0.002685 0.000030 14.946280 -7.141286 1.250868 -173.713215 84.827458 -178.609381 -11.862561 -14.453849 4.859908 0.000050 0.000991 0.000022
-18.272232 126.891867 19.951797 -174.047151 -47.196865 -4.589775 -0.089937 27.036872 1.877528 -0.086622 4.644855 0.320892 -0.105621 7.401328 0.500292 -0.156419 22.041615 1.518104 2.929016 11.439830 -0.110856 3.095665 -13.646839 -0.801491 0.354358 1.784290 1.800048 -0.229112 -8.704546 -8.370771 -74.961412 -45.952285 127.042855 3.147344 21.007923 19.236973 -10.498356 -1.498537 0.184809 -3.500142 -11.621789 9.753692 53.772132 -42.182103 -101.360075 1.702945 3.021124 -19.330226 -20.982408 -16.326851 0.323777 -5.870718 67.525521 8.609006 14.654035 -10.325140 -4.400864 0.000174 -0.002455 0.000077 14.940443 -7.129413 1.258324 -173.698491 84.827004 -178.599877 -11.865038 -14.455116 4.860073 -0.000340 0.001242 -0.000151
-18.271775 126.893210 19.952023 -174.053602 -47.217000 -4.587505 -0.100142 27.025832 1.875656 -0.078204 4.662462 0.318613 -0.109345 7.396243 0.502188 -0.160001 22.036219 1.514628 2.875412 11.432044 -0.148952 3.046807 -13.655007 -0.829235 0.350444 1.758701 1.791762 -0.214179 -8.682536 -8.354165 -75.051243 -46.091837 127.038871 3.119450 20.791923 18.825463 -10.520588 -1.524324 0.169197 -3.534442 -11.614329 9.756509 53.690985 -42.215236 -101.210434 1.812334 2.726293 -19.022219 -20.972547 -16.304892 0.319904 -5.867727 67.519651 8.612409 14.645852 -10.324578 -4.399104 0.000802 -0.002576 0.000355 14.942333 -7.109275 1.268585 -173.633853 84.826995 -178.536126 -11.866145 -14.453938 4.861257 -0.000870 0.000678 -0.000385
-18.271262 126.892713 19.953961 -174.056719 -47.222042 -4.586572 -0.106522 27.015842 1.872821 -0.072091 4.672814 0.318814 -0.115653 7.378972 0.502899 -0.164350 22.031780 1.511070 2.795062 11.419926 -0.192555 2.998693 -13.651264 -0.845130 0.348468 1.755080 1.787706 -0.202640 -8.665975 -8.345272 -75.137888 -46.216711 127.036547 3.096280 20.591542 18.406860 -10.543177 -1.551709 0.154881 -3.567235 -11.607442 9.760526 53.604244 -42.252297 -101.052630 1.921253 2.429326 -18.687466 -20.968058 -16.296692 0.320483 -5.868434 67.514265 8.613910 14.634593 -10.329222 -4.398467 0.000652 -0.001833 0.000289 14.941986 -7.103854 1.269918 -173.595071 84.825682 -178.498795 -11.850472 -14.462996 4.857734 -0.000261 0.000226 -0.000116
